<?xml version="1.0" encoding="iso-8859-1"?>
<!-- Generator: Adobe Illustrator 19.0.0, SVG Export Plug-In . SVG Version: 6.00 Build 0)  -->
<svg version="1.1" id="Capa_1" xmlns="http://www.w3.org/2000/svg" xmlns:xlink="http://www.w3.org/1999/xlink" x="0px" y="0px"
	 viewBox="0 0 409.6 409.6" style="enable-background:new 0 0 409.6 409.6;" xml:space="preserve">
<polygon style="fill:#FCD462;" points="289.327,371.176 118.214,371.176 200.261,80.558 209.474,80.558 "/>
<path style="fill:#DC8744;" d="M303.401,409.6H105.018c-7.493,0-13.567-6.074-13.567-13.567V383.7
	c0-7.493,6.074-13.567,13.567-13.567h198.383c7.493,0,13.567,6.074,13.567,13.567v12.334
	C316.968,403.526,310.894,409.6,303.401,409.6z"/>
<path style="fill:#45B39C;" d="M257.079,370.133c0-23.262-23.867-42.12-53.308-42.12s-53.308,18.858-53.308,42.12H257.079z"/>
<g>
	<circle style="fill:#FFFFFF;" cx="203.771" cy="278.63" r="28.959"/>
	<circle style="fill:#FFFFFF;" cx="204.211" cy="208.466" r="19.302"/>
</g>
<g>
	<circle style="fill:#DC8744;" cx="204.211" cy="80.558" r="19.302"/>
	<path style="fill:#DC8744;" d="M248.016,121.173c-1.599,0.038-3.211-0.535-4.46-1.727c-2.498-2.383-2.591-6.337-0.208-8.834
		c15.61-16.36,14.999-42.37-1.362-57.979c-2.498-2.383-2.591-6.337-0.208-8.834c2.383-2.498,6.337-2.591,8.834-0.208
		c21.35,20.367,22.147,54.301,1.777,75.648C251.198,120.488,249.614,121.136,248.016,121.173z"/>
	<path style="fill:#DC8744;" d="M268.204,140.432c-1.599,0.038-3.211-0.535-4.46-1.727c-2.498-2.383-2.591-6.337-0.208-8.834
		c26.226-27.491,25.2-71.197-2.289-97.426c-2.498-2.383-2.591-6.337-0.208-8.834c2.383-2.498,6.337-2.591,8.834-0.208
		c32.477,30.987,33.69,82.618,2.704,115.095C271.387,139.747,269.803,140.395,268.204,140.432z"/>
	<path style="fill:#DC8744;" d="M289.879,161.115c-1.598,0.038-3.211-0.535-4.46-1.727c-2.498-2.383-2.591-6.337-0.207-8.834
		c18.231-19.108,27.928-44.169,27.308-70.572c-0.62-26.403-11.484-50.981-30.592-69.212c-2.498-2.383-2.591-6.337-0.207-8.834
		c2.383-2.498,6.337-2.591,8.834-0.208c21.525,20.534,33.761,48.22,34.46,77.96c0.699,29.74-10.225,57.971-30.761,79.492
		C293.061,160.43,291.477,161.077,289.879,161.115z"/>
	<path style="fill:#DC8744;" d="M161.584,121.173c1.599,0.038,3.211-0.535,4.46-1.727c2.498-2.383,2.591-6.337,0.208-8.834
		c-15.61-16.36-14.999-42.37,1.362-57.979c2.498-2.383,2.591-6.337,0.208-8.834c-2.383-2.498-6.337-2.591-8.834-0.208
		c-21.35,20.367-22.147,54.301-1.777,75.648C158.402,120.488,159.986,121.136,161.584,121.173z"/>
	<path style="fill:#DC8744;" d="M141.396,140.432c1.599,0.038,3.211-0.535,4.46-1.727c2.498-2.383,2.591-6.337,0.208-8.834
		c-26.226-27.491-25.2-71.197,2.289-97.426c2.498-2.383,2.591-6.337,0.208-8.834c-2.383-2.498-6.337-2.591-8.834-0.208
		c-32.477,30.987-33.69,82.618-2.704,115.095C138.213,139.747,139.797,140.395,141.396,140.432z"/>
	<path style="fill:#DC8744;" d="M119.721,161.115c1.598,0.038,3.211-0.535,4.46-1.727c2.498-2.383,2.591-6.337,0.208-8.834
		c-18.231-19.108-27.928-44.169-27.308-70.572c0.62-26.403,11.484-50.981,30.592-69.212c2.498-2.383,2.591-6.337,0.208-8.834
		c-2.383-2.498-6.337-2.591-8.834-0.208c-21.525,20.534-33.761,48.22-34.46,77.96s10.225,57.971,30.761,79.492
		C116.539,160.43,118.123,161.077,119.721,161.115z"/>
</g>
<g>
</g>
<g>
</g>
<g>
</g>
<g>
</g>
<g>
</g>
<g>
</g>
<g>
</g>
<g>
</g>
<g>
</g>
<g>
</g>
<g>
</g>
<g>
</g>
<g>
</g>
<g>
</g>
<g>
</g>
</svg>
